<svg width="242" height="54" viewBox="0 0 242 54" fill="none" xmlns="http://www.w3.org/2000/svg">
<path fill-rule="evenodd" clip-rule="evenodd" d="M218.973 0L195.833 13.4746L195.825 40.4359L218.973 53.9032L242 40.5036V13.4165L218.973 0ZM216.936 48.082L199.81 38.1074L199.817 15.8151L216.936 5.84052V8.4667C213.256 8.97741 208.439 13.0534 208.439 18.6108L208.428 27.6511L202.022 27.6535V37.6354H216.936V48.082ZM220.913 33.5957L220.902 48.1183L238.026 38.1631L238.021 15.7474L220.913 5.78485L220.905 12.2184H219.334C215.066 12.2184 212.405 15.4376 212.413 18.7584V31.6811L205.989 31.6787L205.994 33.6102L220.913 33.5957Z" fill="black"/>
<path fill-rule="evenodd" clip-rule="evenodd" d="M17.939 36.6503V13.4601L13.4252 13.4528L13.3503 22.7521C12.8719 21.9655 10.9992 20.2591 7.82897 20.2639C3.58828 20.2712 0 24.0592 0 31.0276C0 35.8443 2.8682 41.0313 7.93045 41.0313C10.6513 41.0361 12.3161 39.5573 13.2174 38.3712C13.2174 39.0065 13.2412 39.3064 13.277 39.7586C13.2909 39.9352 13.3068 40.1352 13.3237 40.3875H17.9704C17.9165 39.53 17.9248 38.6572 17.9332 37.7848V37.7846C17.9368 37.406 17.9404 37.0275 17.939 36.6503ZM61.2496 25.7729C63.4968 24.6377 64.7484 22.7981 64.7533 20.1574C64.7484 15.1471 61.4332 13.4915 56.5159 13.4915H44.3786L44.3762 40.3802L56.8663 40.3826C61.5395 40.3802 65.9929 38.0396 65.9856 32.5767C65.9784 29.2365 64.3908 26.712 61.2496 25.7729ZM50.045 18.0831H55.3633C57.3762 18.0831 59.2706 18.6108 59.2609 21.1764C59.2706 23.4323 57.7845 24.369 55.7935 24.3859H50.0426L50.045 18.0831ZM50.0426 35.7935H56.1197C58.3596 35.7935 60.3072 35.0431 60.3096 32.25C60.3096 29.5076 58.6423 28.4039 56.2308 28.4015L50.0426 28.4039V35.7935ZM73.457 17.8919V13.4915H68.3222L68.3295 17.8943L73.457 17.8919ZM68.3295 20.9054L73.457 20.9029V40.3826L68.3222 40.3802L68.3295 20.9054ZM76.5668 41.1015C76.5596 42.5586 75.6123 42.837 74.5733 42.8345C74.1456 42.837 73.7783 42.7934 73.457 42.6772V47.0897C74.0006 47.1695 74.5733 47.2421 75.1146 47.2373C80.2807 47.2446 81.687 45.3542 81.6967 41.3605V20.9126H76.562L76.5668 41.1015ZM81.6943 17.8967L76.5692 17.8919L76.5595 13.4915H81.6943V17.8967ZM93.6842 20.3825C88.0155 20.3825 84.1396 24.8289 84.1493 30.6694C84.1493 36.6866 87.7956 40.9103 93.6842 40.9103C97.8959 40.9151 100.984 38.9473 102.422 34.3582L97.9032 34.3703C97.5842 35.566 95.9193 36.8851 93.8606 36.8899C91.0093 36.8778 89.4145 35.336 89.2671 31.945H102.753C103.118 25.9447 100.037 20.3825 93.6842 20.3825ZM93.5416 24.415C90.2868 24.4101 89.3324 27.0557 89.2768 28.566L97.6277 28.5564C97.1468 25.8479 96.0329 24.4126 93.5416 24.415ZM115.39 20.3777C113.225 20.3825 110.978 21.4354 109.683 23.6187L109.577 23.6162V20.9029L104.695 20.9126V40.3778H109.83L109.825 30.1853C109.835 26.2158 111.019 24.5989 113.8 24.5989C116.188 24.6038 117.089 26.1746 117.089 29.389V40.3802L122.214 40.3754L122.224 28.399C122.224 23.5799 120.854 20.3777 115.39 20.3777ZM136.495 20.9126H142.567L135.518 28.0674L143.355 40.3778H137.149L132.012 31.6884L130.031 33.678V40.3826L124.906 40.3778L124.891 13.4915H130.031V27.9198L136.495 20.9126ZM151.95 20.3825C146.095 20.3898 142.296 24.4537 142.289 30.6742C142.296 36.8488 146.095 40.9103 151.95 40.9151C157.841 40.9103 161.634 36.8464 161.627 30.6646C161.634 24.4513 157.831 20.3825 151.95 20.3825ZM147.431 30.6694C147.431 33.7579 148.475 36.8924 151.95 36.8778C155.446 36.8851 156.504 33.7579 156.504 30.6694C156.497 27.5398 155.446 24.4126 151.95 24.4247C148.487 24.4126 147.438 27.5398 147.431 30.6694ZM168.75 24.5215V20.9126H163.865L163.872 40.3778L168.999 40.3826V31.6158C168.99 28.1788 170.304 25.3565 174.054 25.3565C174.673 25.3565 175.427 25.4316 175.898 25.5453L175.903 20.5738C175.565 20.4527 175.142 20.3874 174.777 20.3874C172.286 20.3825 169.763 22.0696 168.75 24.5215ZM177.964 20.9126L177.954 19.3998C177.954 15.9798 180.011 13.4915 184.193 13.4915C184.754 13.4915 185.326 13.5339 185.886 13.5755C186.234 13.6013 186.578 13.6268 186.912 13.6416V17.6329C186.298 17.5555 185.689 17.5143 185.037 17.5216C183.662 17.5216 183.082 18.1243 183.077 19.7387L183.082 20.9029L186.624 20.9054V24.4876H183.082L183.089 40.3778L177.954 40.3826L177.964 24.4876V20.9126ZM36.8855 25.5187C35.2448 22.0865 32.7173 20.1139 29.0034 20.1139C22.9722 20.1139 19.9663 25.1339 19.9663 30.7735C19.9663 36.1202 24.0088 40.8861 28.9793 40.8861C36.3443 40.8861 37.7216 35.1859 37.8448 34.5373L33.1257 34.53C32.2437 36.1372 31.0162 36.9287 29.2716 36.9287C26.6958 36.9287 24.5042 34.7164 24.6322 31.7997L38.0865 31.7901L38.0865 31.6786C38.087 31.0597 38.0875 30.4633 37.9439 29.3648C37.7989 28.1715 37.4026 26.5668 36.8855 25.5187ZM29.0614 23.9624C25.8428 23.9672 24.8014 26.5353 24.7168 28.4426L33.1861 28.445C33.1813 26.0004 31.6831 23.9599 29.0614 23.9624ZM4.69496 30.6791C4.69496 33.5013 5.705 37.1029 9.27636 37.1029C12.5263 37.1029 13.6065 33.344 13.6113 30.6742C13.6065 28.0069 12.5191 24.2625 9.27636 24.2625C5.56243 24.2625 4.70704 28.0142 4.69496 30.6791Z" fill="black"/>
</svg>
